<svg width="250" height="40" viewBox="0 0 250 40" fill="none" xmlns="http://www.w3.org/2000/svg">
<path fill-rule="evenodd" clip-rule="evenodd" d="M217.674 28.0534V17.4978H211.861V29.1756C211.861 33.1267 215.951 36.3334 220.998 36.3334C226.046 36.3334 230.135 33.1267 230.135 29.1756V17.4978H224.366V28.0534C224.366 29.8089 222.866 31.2356 221.021 31.2356C219.176 31.2356 217.677 29.81 217.677 28.0534H217.674Z" fill="white"/>
<path d="M249.097 4.95111H243.243V35.6756H249.097V4.95111ZM239.204 4.95111H233.35V35.6756H239.204V4.95111Z" fill="white"/>
<path fill-rule="evenodd" clip-rule="evenodd" d="M126.254 11.3978H123.072V35.6755H116.844V6.36108H127.549C132.424 6.36108 136.372 10.2366 136.372 15.0177C136.372 19.0889 133.507 22.5022 129.652 23.4289L138.255 35.6755H130.913L124.689 26.0777V19.0666H126.135C128.434 19.0666 130.298 17.3477 130.298 15.23C130.298 13.1111 128.553 11.3933 126.25 11.3933L126.254 11.3978Z" fill="white"/>
<path d="M156.652 27.78C156.691 27.38 156.71 26.9689 156.705 26.55C156.794 20.2156 152.601 16.7367 147.258 16.7367C141.914 16.7367 137.582 21.1222 137.582 26.5311C137.582 31.9389 141.914 36.3333 147.258 36.3333C151.335 36.3333 154.519 34.4878 156.156 31.5967L151.405 29.4056C150.798 30.7133 149.383 31.6356 147.738 31.6311C145.459 31.6278 143.775 29.9556 143.755 27.9833V27.7833H156.649L156.652 27.78ZM143.736 24.4133C143.753 23.4761 144.137 22.5828 144.806 21.9259C145.474 21.2689 146.374 20.9008 147.311 20.9008C148.249 20.9008 149.149 21.2689 149.817 21.9259C150.486 22.5828 150.87 23.4761 150.886 24.4133H143.732H143.736ZM179.953 35.6756L179.945 4.95111H174.111V19.4889C172.558 17.9511 170.49 17.0211 168.23 17.0211C163.394 17.0211 159.476 21.3067 159.476 26.5956C159.476 31.8844 163.394 36.1711 168.23 36.1711C170.513 36.1711 172.581 35.1989 174.138 33.63V35.6744H179.953V35.6756ZM169.89 31.1867C167.519 31.1867 165.592 29.0789 165.592 26.4844C165.592 23.89 167.514 21.7844 169.89 21.7844C172.265 21.7844 174.188 23.89 174.188 26.4844C174.188 29.0789 172.265 31.1856 169.89 31.1856V31.1867ZM204.698 19.7189C206.301 18.2233 207.281 16.2211 207.281 14.0222C207.281 12.0311 206.512 10.1978 205.171 8.76C203.775 7.22222 201.304 6.36111 197.963 6.36111H187.958V35.6756H200.881C205.832 35.5944 209.822 31.8544 209.822 27.2689C209.822 23.9322 208.645 21.5522 204.702 19.7189H204.698ZM199.798 30.5856H194.196V11.3967H198.102C199.816 11.3967 201.208 12.9656 201.208 14.6833C201.208 15.0913 201.128 15.4953 200.972 15.8723C200.816 16.2493 200.587 16.5918 200.299 16.8803C200.01 17.1689 199.668 17.3977 199.291 17.5538C198.914 17.7099 198.51 17.7901 198.102 17.79H196.069V23.06H199.798C201.876 23.06 203.449 24.7356 203.449 26.8156C203.375 28.9633 202.058 30.4478 199.798 30.5856Z" fill="white"/>
<path d="M52.5195 40C63.564 40 72.5195 31.0456 72.5195 20C72.5195 8.95444 63.564 0 52.5195 0C41.474 0 32.5195 8.95444 32.5195 20C32.5195 31.0456 41.474 40 52.5195 40Z" fill="white" fill-opacity="0.3"/>
<path d="M51.0922 29.2789C49.9622 28.6411 49.7389 27.3844 49.1478 26.6155C48.9056 26.3111 48.5056 25.9733 48.3978 25.6966C47.3789 23.09 47.0333 21.6255 46.6756 19.0811C46.4911 17.7778 45.6267 16.6789 44.3656 15.1366C43.8156 14.4644 43.0322 13.3533 42.3544 12.6967C40.08 10.7789 38.85 9.71332 37.3322 8.69109C37.0357 8.48995 36.7214 8.31627 36.3933 8.17221H36.3856C36.3797 8.17127 36.3743 8.16856 36.37 8.16443C35.8633 7.94221 35.4056 7.87998 34.7822 7.84554C34.6993 7.84073 34.6163 7.83813 34.5333 7.83776C33.4022 7.83776 32.3267 8.24887 31.2422 9.08665C30.4544 9.60221 29.5511 9.88998 28.6756 10.1666C27.5711 10.5166 26.4256 10.8822 25.4922 11.6967C25.3256 11.8166 25.1733 11.9855 25.0233 12.1433C24.8189 12.3622 24.6733 12.6122 24.3622 12.7122C24.0922 12.7733 23.9 12.7733 23.6811 12.7922C23.3361 12.8195 22.9932 12.8685 22.6544 12.9389C21.5056 13.2111 20.6256 13.9189 19.6989 14.6689C19.5956 14.7533 19.4878 14.8378 19.3833 14.9222C18.7833 15.3989 17.75 15.8333 17.1656 15.8522C15.5322 15.9022 14.3756 16.2866 13.1722 17.1822C11.93 18.1322 10.6 19.1122 9.12778 19.7155C8.78962 19.8468 8.43049 19.9157 8.06778 19.9189C7.68333 19.9189 7.13333 19.8344 6.69556 19.4278C6.13778 18.9122 5.95333 17.92 6.28778 17.2555C6.78778 16.2711 7.80556 15.4678 8.63667 14.8755C9.70889 14.0644 10.7467 13 10.2856 11.2355C9.78889 9.62109 7.81778 9.10221 6.51444 8.75665C6.14556 8.65998 5.82555 8.57554 5.63778 8.48776C5.22667 8.29554 4.93778 8.09887 4.65778 7.90998C4.38574 7.71294 4.09332 7.54568 3.78556 7.41109C3.73359 7.39178 3.67876 7.38127 3.62333 7.37998C3.43889 7.37998 3.29333 7.46887 3.18222 7.64554C2.71222 8.46443 2.57444 9.29887 2.77111 10.1133C3.07444 11.4511 4.39333 12.6689 5.76889 12.8844C5.90667 12.9189 6.06444 12.9311 6.21889 12.9467C6.36111 12.9578 6.50667 12.9733 6.64111 13C5.72851 13.7052 4.89579 14.5081 4.15778 15.3944C3.15111 16.5789 2.87444 18.5355 3.51556 19.9422C4.07 21.3489 5.47667 22.4944 6.93778 22.7255C7.22555 22.7789 7.53778 22.8055 7.89 22.8055C8.39778 22.8055 8.90889 22.7522 9.39778 22.6989C9.51667 22.6878 9.64 22.6711 9.75444 22.66C9.80444 23.7744 9.84333 24.4666 10.4622 26.0466C10.5 26.1466 10.4733 26.3155 10.3433 26.4311C10.2356 26.5266 9.33555 26.9 9.07778 26.9533C8.96876 26.9715 8.85827 26.9793 8.74778 26.9766H8.37889C8.25667 26.9766 8.09778 26.9766 7.94444 26.9989C7.37889 27.08 7.09889 27.5566 6.89889 28.0189C6.77667 28.2989 6.68778 28.5455 6.61 28.7566C6.41778 29.2833 6.29889 29.61 5.93 29.81C5.93 29.81 5.16111 29.1255 5.03 29.0322C4.85223 28.9271 4.64986 28.8707 4.44333 28.8689C3.95889 28.8689 3.52889 29.1766 3.11333 29.4722C2.98754 29.5662 2.85779 29.6548 2.72444 29.7378C2.37556 29.9566 2.11333 30.33 2.03778 30.7178C1.47222 31.0022 0.918889 31.3444 0.661111 31.91C0.538889 32.1522 0.515556 32.4478 0.492222 32.7322C0.48323 32.8673 0.467656 33.0019 0.445556 33.1355C0.401704 33.226 0.351581 33.3132 0.295556 33.3966C0.138889 33.6122 0 33.9311 0 34.1278C0 34.5422 0.153333 34.7 0.384444 34.8966C0.665556 35.0966 1.43 35.33 1.97556 35.4655C2.01543 35.4761 2.05653 35.4813 2.09778 35.4811C2.26444 35.4811 2.39778 35.3955 2.52556 35.3144C2.58667 35.2766 2.64778 35.2344 2.71778 35.2033C3.16778 35.3111 3.83222 35.45 4.47778 35.45C4.81222 35.45 5.11667 35.4111 5.38889 35.3389C6.04667 35.1611 6.60778 34.27 6.91111 33.7889C6.98444 33.6733 7.05778 33.5589 7.07667 33.5433C7.09593 33.535 7.11683 33.5312 7.13778 33.5322C7.23778 33.5322 7.4 33.5778 7.57222 33.6278C7.77222 33.6855 8.00333 33.75 8.21111 33.77C8.95222 33.8355 9.66 33.3744 10.1178 33.0322C10.3056 32.8933 10.5089 32.6978 10.7089 32.51C10.9311 32.2978 11.1589 32.0789 11.3556 31.9478C11.6152 31.8426 11.8932 31.7905 12.1733 31.7944C12.2733 31.7944 12.3844 31.7978 12.5044 31.81C13.0378 31.9211 13.7378 32.0522 14.4189 32.0522C15.0989 32.0522 15.6144 31.9366 16.0633 31.7022L16.4789 31.4866C16.9289 31.2566 17.39 31.0222 17.8278 30.7833C18.6733 30.3255 19.0122 29.5722 19.2889 28.9689L19.3578 28.8155C19.52 28.4655 19.7656 27.8311 19.8311 27.6733C19.9611 27.6922 20.0967 27.7 20.2389 27.7C20.6956 27.7 21.1456 27.6044 21.58 27.5111C22.0067 27.42 22.4522 27.3278 22.8978 27.3278C23.1333 27.3278 23.3478 27.35 23.5633 27.4044C24.3633 27.5622 25.4167 27.7433 26.4889 27.7433C27.0444 27.7484 27.5987 27.6903 28.1411 27.57C28.2644 27.6889 28.4033 27.7922 28.5378 27.8922C28.6711 27.9922 28.7944 28.0844 28.91 28.1966C28.7867 28.219 28.6625 28.2356 28.5378 28.2467C28.1644 28.2889 27.7767 28.3311 27.4922 28.6355C27.1851 28.5098 26.8551 28.4492 26.5233 28.4578C26.1471 28.4665 25.7721 28.5025 25.4011 28.5655C25.2511 28.5878 25.1044 28.6078 24.9622 28.6266C24.39 28.6955 23.9978 28.9155 23.7944 29.2878C23.6711 29.53 23.5789 29.7844 23.7789 30.1989L24.9044 32.0666C25.0433 32.3089 25.2733 32.5055 25.4311 32.5166C25.5156 32.5244 25.6278 32.5166 25.75 32.5055C25.8467 32.4978 25.9467 32.49 26.0422 32.49C26.2233 32.49 26.3311 32.5211 26.37 32.5822C26.4267 32.6711 26.4811 32.7555 26.5344 32.8433C26.7656 33.2055 27.0033 33.5822 27.3644 33.9011C27.9111 34.3778 28.7911 34.5766 29.6178 34.3855C29.9289 34.27 30.24 34.1578 30.5511 34.0466C31.5244 33.6966 32.5311 33.3355 33.5067 32.9211L35.1256 32.69C35.66 32.5855 36.0678 31.8633 36.2022 31.5633L36.2367 31.4944C36.2367 31.4944 36.7256 30.5255 36.8744 29.9378C36.8822 30.0378 36.8822 30.1711 36.8822 30.3566C36.8822 31.2711 37.0444 32.4289 38.6044 32.3678C39.4733 32.3322 40.6267 31.8178 41.4489 31.6678C42.31 31.5211 43.4322 31.8866 44.2667 31.4789C45.0778 31.1489 45.5433 30.5178 45.6733 30.6489C46.2113 31.1743 46.8505 31.5847 47.5521 31.8552C48.2537 32.1256 49.003 32.2505 49.7544 32.2222C50.92 32.1844 51.0467 31.25 50.2322 30.8266C51.8222 31.0111 52.2922 30.1511 51.9956 29.8733C51.8067 29.6966 51.6956 29.6089 51.0922 29.27V29.2789ZM36.8044 28.41C36.2044 27.5989 35.8133 27.0233 35.7556 26.2811C36.52 26.1922 37.22 25.9389 38.3578 25.8778C38.0611 26.7578 37.0433 27.1766 36.8011 28.4066L36.8044 28.41ZM104.417 33.5733C104.362 33.4655 104.309 33.3622 104.278 33.2844C104.228 33.1122 104.22 32.9311 104.209 32.7389C104.198 32.5278 104.187 32.3078 104.12 32.1011C103.94 31.5011 103.298 31.1278 102.779 30.9166C102.76 30.69 102.718 30.4444 102.507 30.2944C101.61 29.6555 101.141 29.2944 100.888 29.1022C100.738 28.9866 100.684 28.9444 100.653 28.9333C100.547 28.8838 100.432 28.8573 100.314 28.8555C99.9189 28.8555 99.6033 29.1711 99.2967 29.4711L99.0855 29.6789C99.0778 29.6866 99.0744 29.6866 99.0622 29.6866C98.9655 29.6866 98.7655 29.3911 98.7156 29.2566C98.6267 29.0178 98.5589 28.7911 98.4889 28.5722C98.3741 28.1645 98.2262 27.7669 98.0467 27.3833C97.7089 26.7111 96.9867 26.7 96.3478 26.6889H96.1678C95.8755 26.6889 95.49 26.6467 95.4211 26.4533C95.3522 26.2622 95.4944 25.9 95.5833 25.6355C95.6444 25.4511 95.7022 25.2778 95.7211 25.1089C95.8833 24.3866 95.8944 23.4244 95.7522 22.6444C95.9133 22.6489 96.0744 22.6666 96.2444 22.6866C96.39 22.7066 96.54 22.7211 96.6978 22.7289H96.8367C97.7978 22.7289 98.6089 22.54 99.3156 22.1566C100.741 21.2989 101.614 19.9155 101.649 18.4433C101.599 17.6744 101.418 17.04 101.027 16.2555C100.5 15.2178 99.6233 14.1955 98.3433 13.1344C99.0844 12.9811 99.7 12.8011 100.269 12.4422C101.43 11.7044 101.944 10.3666 101.718 8.67221C101.657 8.27221 101.502 7.57998 101.164 7.39998C101.116 7.37403 101.062 7.36066 101.007 7.36109C100.761 7.36109 100.522 7.62665 100.311 7.86109C100.233 7.94998 100.158 8.02998 100.092 8.08776C99.6967 8.44109 99.2311 8.53332 98.7433 8.62998C98.4855 8.67998 98.2211 8.73332 97.97 8.82554C96.8011 9.20665 94.8144 10.0744 94.6367 11.6544C94.4644 13.2155 95.5755 14.2655 96.6522 15.28C97.0089 15.6178 97.3522 15.9366 97.6433 16.2755C98.2655 16.9944 98.7967 17.7089 98.6578 18.5167C98.6089 18.7933 98.2167 19.2167 97.8433 19.3855C97.5589 19.4855 97.2633 19.5344 96.9633 19.5344C95.9678 19.5344 95.01 18.99 94.1689 18.5044L94.0489 18.4355C92.0967 17.0822 90.0789 15.68 87.5767 15.4133C86.6233 15.23 85.7967 14.6533 84.9933 14.0911C84.8089 13.9611 84.623 13.8333 84.4355 13.7078C83.5938 13.2136 82.6665 12.8823 81.7022 12.7311C81.2022 12.6655 80.8067 12.3389 80.3878 11.9978C80.171 11.8097 79.9399 11.6388 79.6967 11.4866C78.7155 10.853 77.6215 10.4143 76.4744 10.1944C76.3611 10.1605 76.2462 10.1323 76.13 10.11C75.83 10.0478 75.5178 9.97887 75.3022 9.75221C74.9722 9.36332 74.5178 8.86332 73.9689 8.47221C73.2344 7.97998 72.0933 7.45665 71.0978 7.45665C70.8965 7.45423 70.6958 7.47889 70.5011 7.52998C69.9478 7.66887 69.5178 7.99109 69.0633 8.33332L68.8911 8.45998C67.98 9.17109 66.7689 10.1489 65.8156 10.8289C62.9711 12.8544 61.9022 13.7422 60.4922 15.2844C56.8633 19.2466 57.9667 25.1778 54.83 28.6144C54.0189 29.5055 53.7922 29.6211 53.4967 29.8678C53.13 30.1744 53.0456 31.8089 55.4211 31.0089C54.3378 31.9355 55.0211 32.3655 55.7322 32.3811C56.9867 32.4078 58.37 31.9733 59.7267 30.5289C60.6689 31.8844 62.31 31.2589 63.1633 31.3289C63.9633 31.3933 65.4356 32.2622 66.2922 32.2122C67.5989 32.1311 68.08 30.8244 67.9489 30.0978C68.16 30.0978 68.2178 30.0478 68.2756 29.9444C68.43 30.7011 68.5333 31.22 68.68 31.6C68.6911 31.6278 68.71 31.6622 68.7289 31.7V31.7089C68.8222 31.8733 69.0144 32.2389 69.2067 32.4155C69.4289 32.6844 69.7633 32.72 70.0289 32.72C70.1367 32.72 70.2444 32.7122 70.3478 32.7089C70.4667 32.7 70.5822 32.6966 70.6933 32.6966C70.7926 32.7704 70.8876 32.8498 70.9778 32.9344C71.1889 33.1189 71.4044 33.3122 71.67 33.3844C72.9078 33.7033 73.9344 33.9878 74.93 34.3378C75.1333 34.4033 75.4444 34.4878 75.7556 34.4878C75.8556 34.4878 75.9556 34.48 76.0478 34.4611C76.9944 34.2566 77.8367 33.4466 78.0433 32.5278C78.0589 32.3855 78.1622 32.3733 78.3389 32.3655C78.4667 32.3622 78.6122 32.3544 78.6933 32.2622C79.2078 31.8511 79.5233 31.2855 79.8311 30.7433C79.8956 30.6289 79.9611 30.51 80.0311 30.3944C80.1108 30.2576 80.1558 30.1034 80.1624 29.9452C80.169 29.787 80.1369 29.6296 80.0689 29.4866C79.9689 29.2866 79.7889 29.1411 79.5267 29.0533C79.0344 28.9144 78.4855 28.9022 78.0122 28.9022H77.49C77.2433 28.9022 76.9589 28.9022 76.6822 28.8755L76.4822 28.6566C76.3367 28.5255 76.1522 28.4955 75.9711 28.4644L75.8411 28.4422L76.29 28.0911C76.4711 28.0955 76.6478 28.0989 76.8244 28.0989C77.87 28.0989 78.8311 28.0066 79.6889 27.8266C80.4519 27.6431 81.2331 27.5462 82.0178 27.5378C82.1222 27.5378 82.2289 27.5378 82.3367 27.5455C82.4633 27.5533 82.5944 27.5611 82.7211 27.5722C83.19 27.6033 83.6711 27.6389 84.1511 27.6389C84.7856 27.6389 85.3011 27.58 85.7622 27.4578C85.82 27.6878 85.8656 27.9144 85.9078 28.1378C86.0767 28.9755 86.2344 29.7678 86.88 30.4555C87.2689 30.9511 87.7756 31.2355 88.2689 31.5166C88.5222 31.6589 88.78 31.82 89.0289 31.9855C89.36 32.1544 89.6255 32.1811 90.0055 32.1811C90.5355 32.1811 91.2122 31.9544 91.5967 31.9544C93.2 31.9544 94.4378 32.8233 95.7789 33.8722C96.0178 34.03 96.31 34.1111 96.6444 34.1111C97.0511 34.1111 97.5089 33.9889 97.9089 33.7722L97.94 33.8189C98.1844 34.1644 98.4433 34.5266 98.7889 34.8078C99.2844 35.2566 99.9267 35.3189 100.489 35.3189C100.677 35.3189 100.872 35.31 101.061 35.3022C101.33 35.2911 101.602 35.28 101.864 35.2911C101.968 35.4366 102.168 35.5489 102.326 35.5411C102.483 35.5333 104.217 34.9678 104.309 34.9378C104.401 34.9066 104.531 34.83 104.531 34.83C104.951 34.6144 104.647 34.0078 104.424 33.5611L104.417 33.5733ZM68.5211 28.4667C68.1022 27.6333 67.7744 26.8833 67.2555 26.1C68.4444 26.38 69.8 26.2444 69.8 26.2444C69.4167 26.7911 68.9778 27.5711 68.5211 28.4667Z" fill="black" fill-opacity="0.2"/>
<path d="M75.9126 29.2911C75.8504 29.2133 75.7282 29.2022 75.6582 29.2022C75.6282 29.2022 75.6004 29.2022 75.5693 29.2067C75.3549 29.2333 75.1582 29.2444 74.9549 29.2444C74.85 29.244 74.7452 29.2414 74.6404 29.2367C74.5549 29.2367 74.4782 29.2289 74.4015 29.2289C74.2749 29.2289 74.1715 29.2367 74.0682 29.2567H74.0438L74.0326 29.2789C74.0171 29.31 73.6215 30.0011 73.6749 30.44C73.7326 30.9133 74.2126 31.0089 74.5782 31.0822C74.7093 31.1089 74.8593 31.1355 75.0126 31.1355C75.2738 31.1355 75.4471 31.0467 75.5349 30.8744C75.7265 30.4074 75.8633 29.9197 75.9426 29.4211C75.9492 29.3974 75.9499 29.3725 75.9447 29.3485C75.9395 29.3245 75.9285 29.3021 75.9126 29.2833V29.2911ZM102.027 30.8511C101.8 30.5244 101.405 30.2622 101.089 30.0511C100.963 29.973 100.843 29.8873 100.727 29.7944L100.663 29.7478C100.591 29.6861 100.499 29.6522 100.405 29.6522C100.047 29.6522 99.6593 30.0822 99.6515 30.2278C99.6404 30.4433 99.9471 30.8278 100.347 31.3055L100.432 31.4089C100.635 31.65 100.854 31.7811 101.085 31.7967C101.319 31.7967 101.504 31.7189 101.7 31.5355C101.846 31.4011 102.169 31.0622 102.023 30.8544L102.027 30.8511ZM103.7 33.6344C103.644 33.5262 103.598 33.4131 103.563 33.2967C103.529 33.134 103.503 32.9697 103.485 32.8044C103.452 32.5422 103.42 32.2933 103.339 32.1011C103.282 31.9822 103.193 31.8814 103.081 31.8101C102.97 31.7387 102.841 31.6994 102.709 31.6967C102.618 31.6956 102.528 31.717 102.447 31.7589C102.056 31.9544 101.82 32.1667 101.886 32.6078C102.102 33.25 102.208 33.7155 102.352 34.3489C102.367 34.4455 102.433 34.7644 102.585 34.7644C102.597 34.7644 102.609 34.7644 102.62 34.7611L103.747 34.3922C103.773 34.3844 103.797 34.371 103.818 34.353C103.838 34.3349 103.855 34.3127 103.866 34.2878C103.932 34.1378 103.813 33.8844 103.697 33.6378L103.7 33.6344Z" fill="white"/>
<path d="M101.71 34.5333C101.621 33.8412 101.429 33.1663 101.14 32.5311L101.126 32.5011H101.091C100.437 32.5422 100.033 32.0122 99.6413 31.5044C99.5113 31.3355 99.3913 31.1778 99.2612 31.04C99.0671 30.8228 98.8577 30.6196 98.6346 30.4322C98.4035 30.2322 98.2079 30.0555 98.1312 29.8989C98.039 29.7055 97.939 29.3367 97.8424 28.9789C97.7735 28.7255 97.709 28.4833 97.6468 28.3178C97.6357 28.2844 97.6201 28.2489 97.6079 28.2144C97.489 27.8989 97.3468 27.5067 96.939 27.4422C96.7357 27.4078 96.5124 27.4 96.3012 27.3922C95.7124 27.3689 95.1212 27.2655 94.8179 26.8422C94.5368 26.4533 94.6513 26.0922 94.8101 25.7089C94.879 25.5389 94.929 25.3978 94.9679 25.2355C95.179 24.5244 95.2524 23.64 95.0901 23.0211C95.0635 22.9214 95.0327 22.8227 94.9979 22.7255C94.9135 22.4678 94.8135 22.0755 94.8757 21.9567C94.9401 21.8378 95.0057 21.8178 95.1246 21.8178C95.229 21.8178 95.3479 21.8533 95.459 21.8844C95.5401 21.9067 95.6012 21.9178 95.679 21.9378C95.9701 22.0067 96.409 22.0867 96.809 22.0867C97.4701 22.0867 98.1646 21.9444 98.7646 21.6867C99.899 21.1378 101.018 19.8967 100.96 18.3589C100.81 16.8022 99.849 15.2989 98.0157 13.7578C97.9735 13.7189 97.9235 13.68 97.8768 13.6422C97.639 13.4455 97.3501 13.1967 97.3435 12.9767C97.3357 12.7578 97.9079 12.6233 98.2657 12.5389C98.3501 12.52 98.4235 12.5044 98.4879 12.4855L98.5801 12.4622C99.0379 12.3433 99.5068 12.22 99.8957 11.9511C101.202 11.07 101.156 9.5211 101.007 8.66777C100.999 8.64554 100.995 8.61777 100.987 8.58777C100.965 8.47665 100.933 8.33777 100.829 8.33777C100.791 8.34076 100.756 8.35689 100.729 8.38332C100.691 8.41777 100.652 8.45665 100.61 8.49443C100.46 8.63776 100.295 8.79888 100.102 8.90554C99.6879 9.15221 99.1879 9.25665 98.7079 9.35665C98.4001 9.4211 98.0813 9.48665 97.7857 9.58999C96.4857 10.04 95.679 10.6978 95.3901 11.5467C95.2401 11.9889 95.3213 12.5467 95.609 13.0844C96.0357 13.7578 96.6468 14.3455 97.2424 14.9144C98.1812 15.8144 99.149 16.74 99.3724 18.0011C99.4946 18.7344 99.1957 19.3544 98.4612 19.8889C98.0768 20.1189 97.5846 20.2422 97.039 20.2422C96.3474 20.2371 95.6671 20.0656 95.0557 19.7422C94.2946 19.3622 93.5601 18.87 92.849 18.3933C91.7801 17.6789 90.6735 16.94 89.4479 16.5489C88.9168 16.3055 88.3257 16.1867 87.7557 16.0711C86.9446 15.9067 86.1068 15.7378 85.4335 15.21C85.2022 15.0577 84.9755 14.8988 84.7535 14.7333C84.1424 14.2922 83.5124 13.8333 82.7979 13.6533C82.5312 13.5611 82.2712 13.5267 82.0168 13.4889C81.6246 13.4311 81.2601 13.3811 80.9212 13.1389L80.4601 12.8044C79.8913 12.3889 79.3035 11.9589 78.7157 11.6622C77.7046 11.1589 76.6279 10.8978 75.4246 10.6367C75.0401 10.5444 74.8024 10.2555 74.5479 9.94776C74.379 9.7411 74.2024 9.52888 73.979 9.37888C73.0535 8.64554 72.2113 8.15332 71.1268 8.15332C71.0268 8.15332 70.9235 8.15665 70.8235 8.16443C70.2546 8.20332 69.7013 8.63332 69.3324 8.95665C68.2524 9.9011 67.0879 10.7433 65.9657 11.5589C64.2879 12.77 62.559 14.0222 61.079 15.6411C59.6224 17.1444 59.0957 19.0189 58.5801 20.8378C58.5035 21.1067 58.4313 21.3722 58.3501 21.6411C58.2113 22.1378 58.0846 22.6489 57.9613 23.1411C57.2935 25.8189 56.6057 28.4955 53.929 30.2322C53.7524 30.3478 53.8146 30.5711 53.979 30.6322C54.049 30.6589 55.1712 31.0355 56.2901 29.9133C56.9657 29.0755 57.3424 28.3022 58.1501 27.4378C58.1768 27.4111 58.269 27.3378 58.3457 27.3455C58.4001 27.3722 58.4157 27.4 58.4001 27.4955C58.2957 27.8422 58.0846 28.1455 57.8779 28.4411C57.6668 28.7444 57.4501 29.0567 57.3424 29.4133C57.0857 30.1822 56.3701 30.8055 55.7357 31.3511C55.7357 31.3511 55.6357 31.4167 55.579 31.49C55.5213 31.5622 55.5213 31.5933 55.5213 31.5933C55.5013 31.7622 55.6357 31.8667 55.909 31.8778C57.409 31.8778 58.4768 30.8133 59.5068 29.7789C59.5294 29.7563 59.5565 29.7388 59.5864 29.7275C59.6163 29.7162 59.6483 29.7113 59.6801 29.7133C59.7365 29.7116 59.7927 29.7207 59.8457 29.74C59.9146 29.7789 60.0724 29.9333 60.1946 30.04C60.5335 30.34 60.879 30.6511 61.3324 30.7433H61.3479C61.8946 30.6667 62.3857 30.6055 62.8935 30.6055C63.0401 30.6055 63.1779 30.6089 63.3013 30.6211C63.8468 30.7855 64.3968 30.9933 64.9235 31.19C65.2957 31.3322 65.6801 31.4744 66.0679 31.6044H66.0846C66.5846 31.5855 66.9401 31.1211 67.2024 30.7089C67.3246 30.4167 67.2679 30.1322 67.2101 29.8555C67.1757 29.6833 67.1413 29.5222 67.1524 29.3633C67.2446 29.3178 67.3713 29.3255 67.5068 29.3444C67.6257 29.3633 67.7979 29.3444 67.8557 29.3367C67.9868 29.3178 68.1246 29.1678 68.0868 28.9722C67.9868 28.4722 67.7368 28.1644 67.4868 27.78C67.2679 27.4533 67.0601 27.1467 66.9568 26.8C66.7913 26.3422 66.4413 25.9622 66.1035 25.5933C65.7113 25.1667 65.3424 24.7622 65.2301 24.2511C65.2301 24.2511 65.1968 24.1433 65.2346 24.1011C65.2724 24.0589 65.3768 24.1089 65.3768 24.1089C65.5568 24.24 65.7379 24.3867 65.9101 24.5278C66.4801 24.99 67.0679 25.47 67.7835 25.5778C68.4479 25.6433 69.1779 25.7278 69.889 25.6667C70.0779 25.6355 70.1735 25.47 70.1279 25.3122C69.8435 24.7122 69.5513 24.0678 69.3746 23.3633C69.2246 22.8333 68.8901 21.4378 69.2324 20.3844C69.2668 20.2811 69.3357 20.2455 69.3979 20.2455C69.4046 20.2455 69.4124 20.2455 69.4246 20.25C69.5401 20.2767 69.6168 20.4155 69.6324 20.5222L69.6435 20.6611C69.7435 22.0944 69.839 23.4478 70.7157 24.6011C70.9501 24.9744 71.2846 25.17 71.6079 25.3622C71.8301 25.4933 72.0879 25.6122 72.2501 25.82C72.4346 26.0533 72.4646 26.4533 72.339 26.6955L71.2613 28.2844C71.0079 28.6455 70.7613 29.0333 70.6735 29.4289C70.5935 29.8289 70.6279 30.2178 70.6624 30.5944L70.6701 30.6855C70.6358 30.6639 70.6079 30.6337 70.589 30.5978C70.1557 29.8133 70.0668 29.1489 70.289 28.6378C70.4313 28.3067 71.3079 27.0655 71.5612 26.6578C71.6424 26.5267 71.7079 26.3967 71.639 26.3078C71.5535 26.1967 70.8968 25.9155 70.7235 25.9155C70.7124 25.9155 70.7012 25.9155 70.689 25.92C70.5357 25.9622 70.4357 26.1044 70.3468 26.2311C70.3268 26.2595 70.3065 26.2877 70.2857 26.3155L68.959 28.7222L68.9279 28.8111C68.8512 29.0522 68.7835 29.26 68.8512 29.5367C68.9246 29.8978 69.0357 30.2867 69.1201 30.57L69.1901 30.8055C69.309 31.2244 69.4201 31.6167 69.6046 31.8355C69.66 31.9023 69.7302 31.9552 69.8097 31.9899C69.8892 32.0246 69.9757 32.0403 70.0624 32.0355C70.1624 32.0355 70.2657 32.02 70.3657 32.0044C70.5324 31.9778 70.7124 31.9589 70.8468 31.9933C71.0468 32.0433 71.1846 32.1933 71.3312 32.3467C71.4768 32.5044 71.6268 32.6655 71.8501 32.7311C72.2612 32.87 72.6912 32.9811 73.1068 33.0889C73.6601 33.2344 74.2335 33.3844 74.779 33.5955C75.0868 33.6955 75.4168 33.7878 75.7357 33.7878C76.0901 33.7878 76.309 33.6878 76.6168 33.4389C77.0468 33.0889 77.189 32.7422 77.2968 32.2433C77.3812 31.7855 77.5346 31.7544 77.8657 31.7355C78.0268 31.7278 78.0501 31.7355 78.2079 31.6822C78.3735 31.6278 78.8535 31.04 79.1035 30.56C79.1724 30.4289 79.2457 30.3089 79.3146 30.2055C79.3808 30.1181 79.4174 30.0119 79.419 29.9022C79.419 29.6633 79.219 29.5911 79.0924 29.5867H79.0068C79.0068 29.5867 77.5924 29.5755 77.2046 29.5867C76.6246 29.6178 76.3713 30.1755 76.1668 30.6711C76.0857 30.8633 76.0124 31.04 75.9168 31.1978C75.7635 31.4744 75.4635 31.6433 75.0946 31.6355C74.9868 31.6355 74.7479 31.57 74.6257 31.54C73.8601 31.3511 73.0724 31.1589 72.749 30.3978C72.719 30.2678 72.669 29.9978 72.8601 29.7711C73.2679 29.2989 73.8068 28.6989 74.3601 28.2689C75.129 28.1067 75.8979 27.5378 76.3201 26.8233C76.409 26.7 76.4546 26.5544 76.5012 26.4155C76.5701 26.2 76.6346 25.9967 76.8313 25.87C76.9546 25.8078 77.0546 25.8278 77.0812 25.9355C77.1546 26.3355 77.0046 26.7189 76.8546 27.0911C76.8211 27.1742 76.7892 27.2579 76.759 27.3422L76.7357 27.4033L76.8012 27.4111C77.0124 27.43 77.2312 27.4422 77.4501 27.4422C78.239 27.4422 78.9879 27.3078 79.7146 27.1767C80.4335 27.0455 81.179 26.9111 81.9479 26.9111C82.029 26.9111 82.1135 26.9111 82.1979 26.9155C82.5401 26.9155 82.8701 26.9455 83.1935 26.9733C83.509 27 83.8357 27.0311 84.1624 27.0311C84.2768 27.0311 84.3846 27.0311 84.4924 27.02C85.4768 26.9733 86.1924 26.5267 86.4068 25.82C86.6101 25.2167 86.5879 24.1755 86.3412 22.7211C86.3301 22.6522 86.3224 22.6067 86.3224 22.5989V22.5722C86.3224 22.5178 86.3224 22.4611 86.3957 22.4255C86.4879 22.3755 86.5846 22.4255 86.629 22.5444C87.0024 23.59 87.2179 24.7933 87.3335 25.62C87.4601 26.4233 87.7946 27.2378 88.3635 28.1067C89.0668 29.1567 90.2279 29.76 91.5457 29.76C91.8535 29.76 92.1612 29.7022 92.4646 29.6633C92.6757 29.6367 92.7568 29.6478 92.899 29.6478C94.5757 29.6478 96.0324 30.3744 97.1201 31.7478C97.1201 31.7478 97.139 31.7744 97.139 31.8122C97.139 31.87 97.0546 31.9278 96.9812 31.8967L96.839 31.7855C95.8946 31.0522 94.9168 30.2944 93.6912 30.1444C93.4626 30.105 93.231 30.0856 92.999 30.0867C92.6519 30.0927 92.3055 30.1183 91.9613 30.1633C91.6235 30.2022 91.3079 30.2411 90.9813 30.2411C90.6012 30.2493 90.2234 30.1813 89.8701 30.0411C88.459 29.5744 87.3068 27.9522 86.9368 26.9455C86.9234 26.9173 86.9023 26.8934 86.876 26.8765C86.8497 26.8597 86.8192 26.8505 86.7879 26.85C86.749 26.85 86.7101 26.8611 86.6679 26.8889C86.5035 26.9922 86.4757 27.0455 86.4535 27.1455C86.4301 27.23 86.5679 27.9533 86.6301 28.2644C86.8146 29.0333 87.0912 30.1944 88.0979 30.6244C88.2213 30.6978 88.3479 30.7789 88.4712 30.8589C88.9746 31.1811 89.4935 31.5167 90.089 31.5167C90.2312 31.5167 90.3735 31.4978 90.5112 31.4589C90.8701 31.3811 91.2346 31.34 91.6035 31.34C92.7646 31.34 93.9446 31.7355 94.9368 32.4578C95.1012 32.5544 95.259 32.6844 95.409 32.8122C95.6246 32.9922 95.8435 33.1767 96.1057 33.2733C96.2701 33.3389 96.4468 33.3733 96.6357 33.3733C97.0857 33.3733 97.2001 33.2389 97.5201 33.0811C97.6375 33.0235 97.7661 32.992 97.8968 32.9889C98.2579 32.9889 98.4579 33.2689 98.7113 33.6267C98.8646 33.8422 99.0379 34.0844 99.2724 34.2955C99.599 34.6144 100.052 34.6533 100.41 34.6533C100.607 34.6533 100.802 34.6378 100.995 34.6267C101.179 34.6155 101.402 34.6067 101.521 34.5955C101.637 34.58 101.702 34.5644 101.702 34.5644V34.5189L101.71 34.5333ZM63.5157 29.1722C63.4513 29.2911 63.2935 29.36 63.0857 29.36C62.9133 29.3623 62.7438 29.3157 62.5968 29.2255C62.3279 29.0333 62.1712 28.7144 62.1479 28.2955C62.1435 28.1989 62.1368 28.0989 62.2668 28.0033C62.3324 27.9644 62.3713 27.9644 62.4479 27.9644C62.7046 27.9644 63.1168 28.13 63.3357 28.3955C63.3512 28.4144 63.6935 28.8678 63.5168 29.1755L63.5157 29.1722ZM63.8857 23.2555C63.789 23.3789 63.6435 23.4711 63.5013 23.4022C63.3668 23.3555 63.2468 23.1822 63.1746 23.0522C63.0824 22.8867 63.0046 22.7444 62.7857 22.76H62.7513C62.559 22.7755 62.4135 22.8711 62.259 22.99C62.1824 23.0522 61.8701 23.2833 61.7946 23.3478C61.3757 23.7022 60.9524 24.0667 60.8524 24.5622C60.8311 24.6507 60.8119 24.7396 60.7946 24.8289C60.7635 25.0011 60.7335 25.1811 60.5868 25.2733H60.5757C60.5557 25.2844 60.533 25.2898 60.5101 25.2889C60.4439 25.2863 60.3802 25.2621 60.329 25.22C60.3026 25.2003 60.2809 25.1749 60.2657 25.1456C60.2505 25.1164 60.2421 25.0841 60.2412 25.0511C60.1679 24.1978 60.4568 23.4289 61.0557 22.8833C61.4446 22.5644 61.7557 22.1644 62.059 21.7755C62.2057 21.5867 62.359 21.3911 62.5168 21.2111C62.6357 21.0922 62.8324 21.1922 63.1546 21.5444C63.289 21.6911 63.7124 22.4111 63.9046 22.8833C63.9266 22.9422 63.9359 23.0051 63.9321 23.0679C63.9283 23.1307 63.9113 23.1919 63.8824 23.2478L63.8857 23.2555ZM70.9468 13.3344C70.7857 13.4889 70.6157 13.6422 70.4468 13.8C69.8468 14.3455 69.2279 14.9111 68.8213 15.5489C68.629 15.81 68.4868 16.11 68.3479 16.4022C68.3324 16.4333 68.2979 16.4978 68.2324 16.4978C68.2155 16.497 68.199 16.4928 68.1837 16.4856C68.1684 16.4783 68.1548 16.4681 68.1435 16.4555C68.029 16.34 68.1246 15.5367 68.2746 15.1333C68.6057 14.2422 69.3546 13.3078 70.3357 12.5733C70.4445 12.5068 70.5693 12.4711 70.6968 12.47C70.8812 12.47 71.0235 12.5544 71.0813 12.7C71.2035 12.8967 71.159 13.1267 70.9468 13.3344ZM30.8912 30.2289C30.8568 30.171 30.8249 30.1117 30.7957 30.0511C30.6957 29.8633 30.6424 29.6633 30.5924 29.49C30.4924 29.1411 30.4079 28.8367 30.0268 28.89C29.489 28.9678 28.9657 29.0022 28.3824 29.0022C28.3735 29.0022 28.1935 29.0022 28.1357 29.1289C28.0701 29.2755 28.2168 29.4133 28.3746 29.5555C28.4624 29.6367 28.5546 29.7211 28.6157 29.8133C28.7235 29.9711 28.8268 30.1978 28.9268 30.4167C29.0846 30.7667 29.2235 31.0667 29.3812 31.1167C29.4535 31.137 29.5284 31.1471 29.6035 31.1467C29.9701 31.1467 30.4724 30.9511 30.8379 30.6667C31.0412 30.4933 30.9768 30.3778 30.8846 30.2244L30.8912 30.2289ZM4.60347 29.6833L4.57347 29.66C4.46236 29.5711 4.26236 29.5822 4.1268 29.6755C4.03458 29.74 3.93791 29.8022 3.8468 29.8644C3.5468 30.0633 3.23569 30.2667 2.90902 30.5433C2.78902 30.6433 2.72347 30.8322 2.71236 30.9778C2.70125 31.0933 2.72347 31.1855 2.77014 31.2444C2.7968 31.2744 3.03569 31.5389 3.08569 31.5822C3.19035 31.6759 3.32525 31.7287 3.46569 31.7311C3.57821 31.7284 3.68855 31.6995 3.78791 31.6467C4.36902 31.3555 4.96902 30.2789 4.99236 30.2167C5.05347 30.0444 4.85791 29.8867 4.60347 29.6833ZM2.68902 32.2355C2.57014 32.0667 2.17458 31.6011 1.95125 31.6011C1.93236 31.6011 1.91236 31.6011 1.89791 31.6122C1.59014 31.7389 1.23236 32.1389 1.21347 32.3778C1.13569 33.4189 1.10569 33.53 0.821247 33.85C0.740136 33.9389 0.686802 34.1455 0.779025 34.2344C0.859025 34.3144 1.88236 34.6378 1.9968 34.6378H2.02014C2.11236 34.6067 2.18902 34.3722 2.39791 33.6533C2.50902 33.2644 2.63569 32.8267 2.77791 32.4311C2.78569 32.4044 2.78902 32.3655 2.6968 32.2355H2.68902Z" fill="white"/>
<path d="M34.0469 32.1667C34.4658 32.1355 34.9002 32.1044 35.208 31.7778C35.5969 31.2122 35.9302 30.6444 36.2235 30.0444C36.4847 29.5055 36.488 28.9789 36.2313 28.5678C35.458 27.33 35.3202 27.0033 35.0047 26.1622L34.9969 26.1389L34.9747 26.1311C34.8832 26.103 34.7932 26.0707 34.7047 26.0344C34.5158 25.9622 34.3158 25.8811 34.0902 25.8811H34.0591C33.7935 25.8889 33.6135 25.9733 33.5402 26.12L33.5291 26.1422L34.9313 28.91C35.0202 29.1255 35.1235 29.3444 35.0702 29.6678C35.0158 29.99 34.328 31.0744 34.1202 31.2122C34.0851 31.2403 34.0427 31.2577 33.998 31.2622C33.9824 31.2622 33.9091 31.2478 33.9547 31.0855C34.0858 30.6367 34.2513 29.5789 34.2047 29.2411C34.1547 28.8489 32.9791 26.9033 32.9291 26.8189L32.9058 26.7855C32.7247 26.4889 32.5369 26.1811 32.5524 25.8233C32.5524 25.6578 32.7058 25.5433 32.8169 25.5011C33.0213 25.4233 33.2169 25.3933 33.4247 25.3467C33.9247 25.2355 34.4391 25.1244 34.6247 24.8433C35.1858 23.99 35.5191 23.0989 35.7424 21.8644C35.7535 21.81 35.7924 21.7067 35.8691 21.7067C35.9158 21.7067 35.9613 21.7222 35.9802 21.8289C36.082 22.4126 36.0666 23.0107 35.9347 23.5883C35.8029 24.166 35.5574 24.7116 35.2124 25.1933C35.164 25.274 35.1463 25.3695 35.1624 25.4622C35.178 25.5622 35.2891 25.6433 35.2891 25.6433C35.558 25.8278 36.5424 25.72 37.2569 25.3467C37.8024 25.3578 38.3147 25.2622 38.8135 25.17C38.9713 25.1389 39.1291 25.1122 39.2824 25.0855C39.3324 25.1122 39.3713 25.1589 39.3791 25.1933C38.9602 25.6655 38.7058 26.1967 38.5758 26.8611C38.4566 26.9817 38.3335 27.0984 38.2069 27.2111C37.7491 27.63 37.2569 28.1 37.2336 28.6989C37.2336 28.6989 37.2191 28.9144 37.4535 28.9289C37.5258 28.9333 37.6102 28.8955 37.6869 28.8644C37.7624 28.8261 37.8455 28.8048 37.9302 28.8022C37.966 28.8073 37.9989 28.8248 38.0233 28.8516C38.0476 28.8783 38.0618 28.9127 38.0635 28.9489L37.5413 29.7133C37.3458 30.0322 37.4302 30.3711 37.5069 30.7022C37.5647 30.8822 37.538 31.0244 37.588 31.1855C37.718 31.5667 38.1836 31.7467 38.5524 31.7467C39.2324 31.7167 39.8524 31.4933 40.4513 31.2778C40.5591 31.24 40.6624 31.2011 40.7735 31.1633C41.4313 30.8789 42.308 30.8211 43.3502 30.99C44.188 30.9355 44.818 30.3822 45.4291 29.8444C45.6902 29.8522 45.9602 30.0055 46.2369 30.3055C47.1435 31.2778 48.2547 31.75 49.6347 31.75H49.7924L49.9302 31.7389C50.0724 31.7055 50.1113 31.6355 50.1191 31.5467C50.1302 31.44 50.0458 31.3322 49.8924 31.2589L49.1191 30.8478C48.5002 30.4555 47.828 29.9822 47.6435 29.3589C47.4436 28.6944 47.0702 28.0189 46.7902 27.5689C46.7329 27.4772 46.6725 27.3875 46.6091 27.3C46.5013 27.1422 46.3869 26.98 46.3091 26.8111C47.1513 27.1111 47.6235 27.7333 48.1935 28.7722C48.6158 29.5444 49.7158 30.3744 50.7569 30.3744C50.8958 30.3744 51.0258 30.3589 51.1569 30.3322C51.268 30.31 51.3413 30.2367 51.3569 30.14C51.368 30.0555 51.3569 29.9744 51.2647 29.9244L50.6335 29.61C49.8847 29.1711 49.4535 28.4489 49.0347 27.7455C48.8691 27.4678 48.7013 27.1844 48.5158 26.9267C48.3969 26.7489 48.1891 26.5655 48.0091 26.4044C47.8513 26.2622 47.7013 26.1267 47.6735 26.0544C46.9902 24.1855 46.2447 21.9911 46.0635 19.55C46.0369 19.1778 45.7747 18.3589 45.4635 17.8278C44.4913 16.2444 42.1691 13.5344 42.0424 13.4C41.9625 13.3159 41.8806 13.2336 41.7969 13.1533L41.7347 13.0922L37.5524 9.61777C36.7224 9.03332 36.4691 8.92888 35.8658 8.71443C35.4428 8.5698 34.9983 8.49841 34.5513 8.50332C33.9591 8.50332 33.3669 8.61776 32.8824 8.82554C32.5491 9.00332 32.2258 9.20999 31.9102 9.40999C31.3769 9.75221 30.8213 10.1055 30.2224 10.3055C29.7535 10.5167 29.2502 10.6711 28.7624 10.8211C27.8124 11.1122 26.8324 11.4167 26.0558 12.1322C25.8291 12.3389 25.6447 12.5122 25.4902 12.6622C24.7724 13.3389 24.6991 13.4111 24.1113 13.4111C22.7502 13.4111 21.7858 13.7455 20.778 14.5644C19.9824 15.2867 19.1947 15.9644 18.2758 16.2833C17.8647 16.4255 17.4069 16.4789 16.9224 16.5255C16.2269 16.5867 16.1191 16.5944 15.4624 16.7522C14.4702 16.9789 13.418 17.7967 12.5291 18.4889C12.2369 18.7155 11.8491 19.0155 11.6647 19.1355C11.568 19.1967 11.4536 19.2689 11.3602 19.3244C10.2536 19.9689 9.21133 20.58 7.87355 20.58H7.77355C6.77466 20.5078 5.86799 19.8189 5.56355 18.9078C5.28355 17.8822 5.58355 16.8289 6.39355 16.0211C6.77799 15.6367 7.21577 15.2644 7.64355 14.9033C8.32799 14.3222 8.97355 13.7722 9.42355 13.17C9.94577 12.47 9.88799 11.29 9.30022 10.6478C8.71577 10.0055 7.40911 9.68665 6.91688 9.56776L6.83244 9.54777C6.78244 9.53665 6.69799 9.52554 6.65133 9.51443C6.34022 9.45221 6.04022 9.40999 5.73688 9.33665C4.96022 9.12554 4.35688 8.52221 3.66911 8.15332C3.40355 8.55999 3.31466 9.00221 3.35022 9.49443C3.48022 10.5322 4.34577 11.6089 5.30577 12.0467C5.34799 12.0622 5.38688 12.0811 5.42911 12.0933C5.73244 12.2233 6.05133 12.2433 6.35133 12.2433H6.74022C6.92466 12.2433 7.14799 12.2433 7.34688 12.2933C7.45259 12.3237 7.54714 12.3842 7.61898 12.4675C7.69081 12.5508 7.73681 12.6532 7.75133 12.7622C7.76688 12.9 7.70466 13.0078 7.52911 13.1422L7.04022 13.5455C6.21355 14.2267 5.36022 14.9344 4.66799 15.79C3.73799 16.7944 3.69577 18.5389 4.13022 19.6689C4.68355 21.1578 6.21355 21.9911 7.48577 22.1522C7.71244 22.1867 7.93911 22.2067 8.17799 22.2067C8.92688 22.2067 9.63799 22.0255 10.3302 21.8522C10.3569 21.8444 10.3769 21.8444 10.3958 21.8444C10.4269 21.8444 10.488 21.8444 10.4991 22.0022C10.5191 22.31 10.538 22.66 10.5535 22.9978C10.5758 23.5478 10.6035 24.0667 10.6424 24.2867C10.7336 24.7744 10.9758 25.37 11.138 25.7622C11.2069 25.9278 11.2602 26.0578 11.2758 26.1233C11.338 26.3455 11.2802 26.5889 11.1302 26.7267C10.608 27.2078 9.54133 27.5878 9.34577 27.6155C9.03133 27.6533 8.69688 27.6722 8.45022 27.6844C8.32799 27.6911 8.22799 27.6955 8.17799 27.7033C8.06772 27.7145 7.9646 27.7632 7.88577 27.8411C7.73577 27.9878 7.57466 28.4067 7.38244 28.8911C7.26688 29.1833 7.15133 29.4867 7.03244 29.7367C6.69799 30.29 6.14022 30.6167 5.59911 30.9278C5.46355 31.0055 5.32911 31.0855 5.19911 31.1667L5.18355 31.1822C4.96133 31.5355 4.73688 31.87 4.44911 32.1233C4.22688 32.3311 3.94133 32.3778 3.66466 32.4122H3.64577L3.63466 32.4278C3.21133 32.9122 3.07688 33.5533 2.94244 34.18C2.92355 34.2767 2.90022 34.3722 2.88022 34.4644L2.86133 34.5533H2.91577C3.13799 34.58 3.36022 34.6267 3.59577 34.68C3.90688 34.7489 4.22577 34.8189 4.54133 34.8189C4.84133 34.8189 5.09466 34.7567 5.32577 34.63C5.72911 34.4455 5.94466 34.0722 6.15577 33.7155C6.29466 33.4811 6.43688 33.2344 6.62911 33.0467C6.68236 32.9856 6.74866 32.9374 6.82309 32.9054C6.89753 32.8735 6.97819 32.8587 7.05911 32.8622C7.21688 32.8622 7.39022 32.9078 7.55466 32.9544C7.70911 32.9967 7.86577 33.0389 8.01577 33.0467C8.76244 33.0889 9.46911 32.62 9.81133 32.3467C9.96133 32.2278 10.1113 32.0855 10.2569 31.9511C10.4836 31.74 10.7147 31.52 10.9647 31.3667C11.268 31.22 11.6335 31.1511 12.0869 31.1511C12.648 31.1511 13.2435 31.2622 13.7169 31.3511C13.9691 31.4166 14.2285 31.4502 14.4891 31.4511C14.9145 31.4579 15.3344 31.3545 15.708 31.1511C16.1235 30.9178 16.5413 30.6978 16.8769 30.5211C17.0724 30.4167 17.2458 30.3289 17.3802 30.2522C17.9758 29.9255 18.4835 29.0178 18.6713 28.6411C18.8491 28.2911 19.1491 27.5344 19.1524 27.5267L19.168 27.4922L18.4713 26.9611L18.4447 27.0078C18.4447 27.0078 17.9835 27.7644 17.688 28.1144C16.4613 29.7833 14.4658 29.9978 12.8635 29.9978C12.7524 29.9944 12.6413 29.99 12.5324 29.99C10.5491 29.99 8.95022 30.6555 7.78133 31.97C7.72799 32.0311 7.63133 32.0433 7.59244 31.9889C7.57022 31.9589 7.56244 31.9089 7.57799 31.8467C7.60062 31.7294 7.6451 31.6175 7.70911 31.5167C8.95022 29.7522 11.0724 29.4911 12.7824 29.46C14.0469 29.3755 14.9658 29.1567 15.7658 28.7489C16.7924 28.2267 17.5491 27.0733 17.8491 26.1578C18.0447 25.5578 18.1413 24.9167 18.2335 24.2978C18.3069 23.8055 18.3835 23.2978 18.5058 22.8289C18.5169 22.7998 18.5365 22.7747 18.5621 22.7568C18.5876 22.739 18.6179 22.7293 18.6491 22.7289C18.6635 22.7289 18.6758 22.7289 18.698 22.74C18.7647 22.7522 18.8869 22.7978 18.8869 22.8944C18.7135 23.8633 18.4791 25.1933 18.9213 26.3C19.1291 26.7378 19.5669 26.9533 20.2669 26.9533C20.6891 26.9533 21.1513 26.88 21.6002 26.8111C21.9469 26.7578 22.2735 26.7033 22.5535 26.6922C22.6735 26.6811 22.7924 26.6767 22.9158 26.6767C23.4724 26.6767 24.0113 26.7844 24.5302 26.8878C24.9835 26.98 25.4524 27.0722 25.9324 27.0955C26.0169 27.1 26.1102 27.1067 26.2058 27.1155C26.3713 27.13 26.5435 27.1422 26.7213 27.1422C27.128 27.1422 27.4169 27.0611 27.6247 26.8922C27.7702 26.7733 27.7202 26.5922 27.6547 26.3655L27.6435 26.3233C27.6324 26.2844 27.6213 26.2422 27.6047 26.1967C27.5124 25.8967 27.3713 25.4433 27.6047 25.2311C27.6428 25.2035 27.6887 25.1887 27.7358 25.1889C27.7735 25.1889 27.828 25.2 27.8435 25.2622L27.9202 25.5233C28.0235 25.8855 28.1313 26.2622 28.3624 26.5844C28.8513 27.2067 29.6035 27.7989 30.5413 28.2878C31.1458 28.7022 31.8713 29.4022 31.9302 30.3789C31.9302 30.8211 31.4991 31.1278 31.1802 31.32C30.6758 31.57 29.8147 31.8511 29.408 31.8511C29.3541 31.8544 29.3001 31.8453 29.2502 31.8244C28.6658 31.5133 28.3658 31.0089 28.0469 30.4744C27.8815 30.1805 27.6928 29.9003 27.4824 29.6367C27.178 29.2989 26.7935 29.1678 26.2747 29.21C25.7747 29.2489 25.3135 29.3444 24.768 29.46C24.715 29.4696 24.665 29.4918 24.6223 29.5246C24.5796 29.5575 24.5453 29.6001 24.5224 29.6489C24.4982 29.7071 24.4883 29.7702 24.4935 29.8331C24.4987 29.8959 24.5189 29.9566 24.5524 30.01C24.8369 30.5167 25.1102 30.9778 25.4024 31.4655L25.5336 31.6855C25.6024 31.8044 25.7524 31.82 25.8747 31.82C25.9413 31.82 26.0135 31.8167 26.0902 31.8089C26.1713 31.8044 26.2558 31.7978 26.3402 31.7978C26.5935 31.7978 26.7558 31.8589 26.8591 31.9855C26.948 32.1189 27.0247 32.2622 27.1013 32.4C27.2935 32.7422 27.4902 33.1 27.8202 33.3533C28.1202 33.62 28.5535 33.7689 29.008 33.7689C29.208 33.7689 29.4002 33.7378 29.5847 33.6844C30.8958 33.2733 32.1713 32.8511 33.3858 32.2011C33.3858 32.2011 33.8669 32.1933 34.0513 32.1778L34.0469 32.1667ZM36.2269 17.4667C36.2047 17.5478 36.1535 17.6011 36.0958 17.6011C36.0735 17.6011 36.0113 17.59 35.9924 17.4855C35.7735 16.3678 35.6424 15.8178 35.3847 15.3022C35.3047 15.1378 35.2002 14.9989 35.1124 14.8755C34.9235 14.6189 34.7624 14.3989 34.9436 14.1C34.9969 14.0111 35.1313 13.9533 35.2769 13.9533C35.3502 13.9533 35.4158 13.9689 35.4735 13.9955C35.6891 14.1 35.9002 14.3611 36.1158 14.7955C36.6535 15.8989 36.2269 17.4555 36.2224 17.4711L36.2269 17.4667ZM43.258 28.6067C43.258 28.6067 43.2224 28.9222 43.0769 29.06C42.9269 29.1944 42.3969 29.2678 42.1158 29.26C41.8358 29.2489 41.7391 29.21 41.6824 29.1255C41.6158 29.0289 41.7235 28.8411 41.7235 28.8411C41.758 28.7722 42.0847 28.0911 42.7458 27.9111C42.7458 27.9111 42.9569 27.8333 43.1613 27.9333C43.3647 28.0333 43.2691 28.5411 43.2613 28.6111L43.258 28.6067ZM45.1713 24.2089C45.1524 24.3644 45.1057 24.5153 45.0335 24.6544C44.9991 24.7167 44.9413 24.8511 44.7491 24.8544C44.538 24.8544 44.5524 24.6089 44.5524 24.5744C44.5524 24.5744 44.5258 23.8855 44.3947 23.5978C44.2524 23.2822 43.5613 22.3944 43.1613 22.4333C43.0613 22.4411 42.8002 22.5989 42.608 22.8478C42.3735 23.1522 42.3735 23.19 42.3002 23.2367C42.2269 23.2822 42.1347 23.2589 42.1047 23.0789C42.0735 22.8978 42.038 22.7522 42.1235 22.41C42.208 22.0678 42.2924 21.9911 42.3924 21.7455C42.3924 21.7455 42.6002 21.2644 42.6769 21.1455C42.8924 20.8189 43.1769 20.8422 43.1769 20.8422C43.2535 20.8455 43.4991 20.8144 43.7658 21.1455C44.0724 21.53 44.0069 21.4955 44.0913 21.63C44.1758 21.7633 44.2691 21.9067 44.5224 22.1833C44.7758 22.4611 45.0558 22.9978 45.1335 23.3322C45.2102 23.6667 45.2069 23.9511 45.1635 24.21L45.1713 24.2089Z" fill="white"/>
</svg>
